<?xml version="1.0" encoding="UTF-8" standalone="no"?><svg xmlns="http://www.w3.org/2000/svg" xmlns:xlink="http://www.w3.org/1999/xlink" contentScriptType="application/ecmascript" contentStyleType="text/css" height="1333px" preserveAspectRatio="none" style="width:667px;height:1333px;" version="1.1" viewBox="0 0 667 1333" width="667px" zoomAndPan="magnify"><defs/><g><!--cluster davidcmg\\batea--><polygon fill="#FFFFFF" points="46.5,158,176.5,158,183.5,180.2969,186.5,180.2969,186.5,225,46.5,225,46.5,158" style="stroke: #000000; stroke-width: 2.0;"/><line style="stroke: #000000; stroke-width: 2.0;" x1="46.5" x2="183.5" y1="180.2969" y2="180.2969"/><text fill="#000000" font-family="sans-serif" font-size="14" font-weight="bold" lengthAdjust="spacingAndGlyphs" textLength="124" x="50.5" y="172.9951">davidcmg\batea</text><!--cluster davidcmg\\batea\\Controllers--><polygon fill="#FFFFFF" points="270,576,493,576,500,598.2969,503,598.2969,503,978,270,978,270,576" style="stroke: #000000; stroke-width: 2.0;"/><line style="stroke: #000000; stroke-width: 2.0;" x1="270" x2="500" y1="598.2969" y2="598.2969"/><text fill="#000000" font-family="sans-serif" font-size="14" font-weight="bold" lengthAdjust="spacingAndGlyphs" textLength="217" x="274" y="590.9951">davidcmg\batea\Controllers</text><!--cluster davidcmg\\batea\\Core--><polygon fill="#FFFFFF" points="75,233,248,233,255,255.2969,645,255.2969,645,568,75,568,75,233" style="stroke: #000000; stroke-width: 2.0;"/><line style="stroke: #000000; stroke-width: 2.0;" x1="75" x2="255" y1="255.2969" y2="255.2969"/><text fill="#000000" font-family="sans-serif" font-size="14" font-weight="bold" lengthAdjust="spacingAndGlyphs" textLength="167" x="79" y="247.9951">davidcmg\batea\Core</text><!--cluster davidcmg\\batea\\Core\\Http--><polygon fill="#FFFFFF" points="6,16,217,16,224,38.2969,227,38.2969,227,150,6,150,6,16" style="stroke: #000000; stroke-width: 2.0;"/><line style="stroke: #000000; stroke-width: 2.0;" x1="6" x2="224" y1="38.2969" y2="38.2969"/><text fill="#000000" font-family="sans-serif" font-size="14" font-weight="bold" lengthAdjust="spacingAndGlyphs" textLength="205" x="10" y="30.9951">davidcmg\batea\Core\Http</text><!--cluster davidcmg\\batea\\Models--><polygon fill="#FFFFFF" points="286,986,477,986,484,1008.2969,487,1008.2969,487,1321,286,1321,286,986" style="stroke: #000000; stroke-width: 2.0;"/><line style="stroke: #000000; stroke-width: 2.0;" x1="286" x2="484" y1="1008.2969" y2="1008.2969"/><text fill="#000000" font-family="sans-serif" font-size="14" font-weight="bold" lengthAdjust="spacingAndGlyphs" textLength="185" x="290" y="1000.9951">davidcmg\batea\Models</text><!--class davidcmg\\batea\\Config--><rect fill="#FEFECE" height="32" id="davidcmg\\batea\\Config" style="stroke: #A80036; stroke-width: 1.5;" width="71" x="80.5" y="185"/><ellipse cx="95.5" cy="201" fill="#ADD1B2" rx="11" ry="11" style="stroke: #A80036; stroke-width: 1.0;"/><path d="M98.4688,206.6406 Q97.8906,206.9375 97.25,207.0781 Q96.6094,207.2344 95.9063,207.2344 Q93.4063,207.2344 92.0781,205.5938 Q90.7656,203.9375 90.7656,200.8125 Q90.7656,197.6875 92.0781,196.0313 Q93.4063,194.375 95.9063,194.375 Q96.6094,194.375 97.25,194.5313 Q97.9063,194.6875 98.4688,194.9844 L98.4688,197.7031 Q97.8438,197.125 97.25,196.8594 Q96.6563,196.5781 96.0313,196.5781 Q94.6875,196.5781 94,197.6563 Q93.3125,198.7188 93.3125,200.8125 Q93.3125,202.9063 94,203.9844 Q94.6875,205.0469 96.0313,205.0469 Q96.6563,205.0469 97.25,204.7813 Q97.8438,204.5 98.4688,203.9219 L98.4688,206.6406 Z "/><text fill="#000000" font-family="sans-serif" font-size="12" lengthAdjust="spacingAndGlyphs" textLength="39" x="109.5" y="205.1543">Config</text><!--class davidcmg\\batea\\Controllers\\Admin--><rect fill="#FEFECE" height="32" id="davidcmg\\batea\\Controllers\\Admin" style="stroke: #A80036; stroke-width: 1.5;" width="70" x="351.5" y="603"/><ellipse cx="366.5" cy="619" fill="#ADD1B2" rx="11" ry="11" style="stroke: #A80036; stroke-width: 1.0;"/><path d="M369.4688,624.6406 Q368.8906,624.9375 368.25,625.0781 Q367.6094,625.2344 366.9063,625.2344 Q364.4063,625.2344 363.0781,623.5938 Q361.7656,621.9375 361.7656,618.8125 Q361.7656,615.6875 363.0781,614.0313 Q364.4063,612.375 366.9063,612.375 Q367.6094,612.375 368.25,612.5313 Q368.9063,612.6875 369.4688,612.9844 L369.4688,615.7031 Q368.8438,615.125 368.25,614.8594 Q367.6563,614.5781 367.0313,614.5781 Q365.6875,614.5781 365,615.6563 Q364.3125,616.7188 364.3125,618.8125 Q364.3125,620.9063 365,621.9844 Q365.6875,623.0469 367.0313,623.0469 Q367.6563,623.0469 368.25,622.7813 Q368.8438,622.5 369.4688,621.9219 L369.4688,624.6406 Z "/><text fill="#000000" font-family="sans-serif" font-size="12" lengthAdjust="spacingAndGlyphs" textLength="38" x="380.5" y="623.1543">Admin</text><!--class davidcmg\\batea\\Controllers\\Index--><rect fill="#FEFECE" height="32" id="davidcmg\\batea\\Controllers\\Index" style="stroke: #A80036; stroke-width: 1.5;" width="65" x="354" y="670"/><ellipse cx="369" cy="686" fill="#ADD1B2" rx="11" ry="11" style="stroke: #A80036; stroke-width: 1.0;"/><path d="M371.9688,691.6406 Q371.3906,691.9375 370.75,692.0781 Q370.1094,692.2344 369.4063,692.2344 Q366.9063,692.2344 365.5781,690.5938 Q364.2656,688.9375 364.2656,685.8125 Q364.2656,682.6875 365.5781,681.0313 Q366.9063,679.375 369.4063,679.375 Q370.1094,679.375 370.75,679.5313 Q371.4063,679.6875 371.9688,679.9844 L371.9688,682.7031 Q371.3438,682.125 370.75,681.8594 Q370.1563,681.5781 369.5313,681.5781 Q368.1875,681.5781 367.5,682.6563 Q366.8125,683.7188 366.8125,685.8125 Q366.8125,687.9063 367.5,688.9844 Q368.1875,690.0469 369.5313,690.0469 Q370.1563,690.0469 370.75,689.7813 Q371.3438,689.5 371.9688,688.9219 L371.9688,691.6406 Z "/><text fill="#000000" font-family="sans-serif" font-size="12" lengthAdjust="spacingAndGlyphs" textLength="33" x="383" y="690.1543">Index</text><!--class davidcmg\\batea\\Controllers\\Login--><rect fill="#FEFECE" height="32" id="davidcmg\\batea\\Controllers\\Login" style="stroke: #A80036; stroke-width: 1.5;" width="65" x="354" y="737"/><ellipse cx="369" cy="753" fill="#ADD1B2" rx="11" ry="11" style="stroke: #A80036; stroke-width: 1.0;"/><path d="M371.9688,758.6406 Q371.3906,758.9375 370.75,759.0781 Q370.1094,759.2344 369.4063,759.2344 Q366.9063,759.2344 365.5781,757.5938 Q364.2656,755.9375 364.2656,752.8125 Q364.2656,749.6875 365.5781,748.0313 Q366.9063,746.375 369.4063,746.375 Q370.1094,746.375 370.75,746.5313 Q371.4063,746.6875 371.9688,746.9844 L371.9688,749.7031 Q371.3438,749.125 370.75,748.8594 Q370.1563,748.5781 369.5313,748.5781 Q368.1875,748.5781 367.5,749.6563 Q366.8125,750.7188 366.8125,752.8125 Q366.8125,754.9063 367.5,755.9844 Q368.1875,757.0469 369.5313,757.0469 Q370.1563,757.0469 370.75,756.7813 Q371.3438,756.5 371.9688,755.9219 L371.9688,758.6406 Z "/><text fill="#000000" font-family="sans-serif" font-size="12" lengthAdjust="spacingAndGlyphs" textLength="33" x="383" y="757.1543">Login</text><!--class davidcmg\\batea\\Controllers\\Servers--><rect fill="#FEFECE" height="32" id="davidcmg\\batea\\Controllers\\Servers" style="stroke: #A80036; stroke-width: 1.5;" width="79" x="347" y="804"/><ellipse cx="362" cy="820" fill="#ADD1B2" rx="11" ry="11" style="stroke: #A80036; stroke-width: 1.0;"/><path d="M364.9688,825.6406 Q364.3906,825.9375 363.75,826.0781 Q363.1094,826.2344 362.4063,826.2344 Q359.9063,826.2344 358.5781,824.5938 Q357.2656,822.9375 357.2656,819.8125 Q357.2656,816.6875 358.5781,815.0313 Q359.9063,813.375 362.4063,813.375 Q363.1094,813.375 363.75,813.5313 Q364.4063,813.6875 364.9688,813.9844 L364.9688,816.7031 Q364.3438,816.125 363.75,815.8594 Q363.1563,815.5781 362.5313,815.5781 Q361.1875,815.5781 360.5,816.6563 Q359.8125,817.7188 359.8125,819.8125 Q359.8125,821.9063 360.5,822.9844 Q361.1875,824.0469 362.5313,824.0469 Q363.1563,824.0469 363.75,823.7813 Q364.3438,823.5 364.9688,822.9219 L364.9688,825.6406 Z "/><text fill="#000000" font-family="sans-serif" font-size="12" lengthAdjust="spacingAndGlyphs" textLength="47" x="376" y="824.1543">Servers</text><!--class davidcmg\\batea\\Controllers\\Tasks--><rect fill="#FEFECE" height="32" id="davidcmg\\batea\\Controllers\\Tasks" style="stroke: #A80036; stroke-width: 1.5;" width="68" x="352.5" y="871"/><ellipse cx="367.5" cy="887" fill="#ADD1B2" rx="11" ry="11" style="stroke: #A80036; stroke-width: 1.0;"/><path d="M370.4688,892.6406 Q369.8906,892.9375 369.25,893.0781 Q368.6094,893.2344 367.9063,893.2344 Q365.4063,893.2344 364.0781,891.5938 Q362.7656,889.9375 362.7656,886.8125 Q362.7656,883.6875 364.0781,882.0313 Q365.4063,880.375 367.9063,880.375 Q368.6094,880.375 369.25,880.5313 Q369.9063,880.6875 370.4688,880.9844 L370.4688,883.7031 Q369.8438,883.125 369.25,882.8594 Q368.6563,882.5781 368.0313,882.5781 Q366.6875,882.5781 366,883.6563 Q365.3125,884.7188 365.3125,886.8125 Q365.3125,888.9063 366,889.9844 Q366.6875,891.0469 368.0313,891.0469 Q368.6563,891.0469 369.25,890.7813 Q369.8438,890.5 370.4688,889.9219 L370.4688,892.6406 Z "/><text fill="#000000" font-family="sans-serif" font-size="12" lengthAdjust="spacingAndGlyphs" textLength="36" x="381.5" y="891.1543">Tasks</text><!--class davidcmg\\batea\\Controllers\\Users--><rect fill="#FEFECE" height="32" id="davidcmg\\batea\\Controllers\\Users" style="stroke: #A80036; stroke-width: 1.5;" width="68" x="352.5" y="938"/><ellipse cx="367.5" cy="954" fill="#ADD1B2" rx="11" ry="11" style="stroke: #A80036; stroke-width: 1.0;"/><path d="M370.4688,959.6406 Q369.8906,959.9375 369.25,960.0781 Q368.6094,960.2344 367.9063,960.2344 Q365.4063,960.2344 364.0781,958.5938 Q362.7656,956.9375 362.7656,953.8125 Q362.7656,950.6875 364.0781,949.0313 Q365.4063,947.375 367.9063,947.375 Q368.6094,947.375 369.25,947.5313 Q369.9063,947.6875 370.4688,947.9844 L370.4688,950.7031 Q369.8438,950.125 369.25,949.8594 Q368.6563,949.5781 368.0313,949.5781 Q366.6875,949.5781 366,950.6563 Q365.3125,951.7188 365.3125,953.8125 Q365.3125,955.9063 366,956.9844 Q366.6875,958.0469 368.0313,958.0469 Q368.6563,958.0469 369.25,957.7813 Q369.8438,957.5 370.4688,956.9219 L370.4688,959.6406 Z "/><text fill="#000000" font-family="sans-serif" font-size="12" lengthAdjust="spacingAndGlyphs" textLength="36" x="381.5" y="958.1543">Users</text><!--class davidcmg\\batea\\Core\\Page--><rect fill="#FEFECE" height="32" id="davidcmg\\batea\\Core\\Page" style="stroke: #A80036; stroke-width: 1.5;" width="63" x="84.5" y="461"/><ellipse cx="99.5" cy="477" fill="#A9DCDF" rx="11" ry="11" style="stroke: #A80036; stroke-width: 1.0;"/><path d="M99.6094,472.3438 L98.4531,477.4219 L100.7813,477.4219 L99.6094,472.3438 Z M98.125,470.1094 L101.1094,470.1094 L104.4688,482.5 L102.0156,482.5 L101.25,479.4375 L97.9688,479.4375 L97.2188,482.5 L94.7813,482.5 L98.125,470.1094 Z "/><text fill="#000000" font-family="sans-serif" font-size="12" font-style="italic" lengthAdjust="spacingAndGlyphs" textLength="31" x="113.5" y="481.1543">Page</text><!--class davidcmg\\batea\\Core\\Auth--><rect fill="#FEFECE" height="32" id="davidcmg\\batea\\Core\\Auth" style="stroke: #A80036; stroke-width: 1.5;" width="61" x="85.5" y="394"/><ellipse cx="100.5" cy="410" fill="#ADD1B2" rx="11" ry="11" style="stroke: #A80036; stroke-width: 1.0;"/><path d="M103.4688,415.6406 Q102.8906,415.9375 102.25,416.0781 Q101.6094,416.2344 100.9063,416.2344 Q98.4063,416.2344 97.0781,414.5938 Q95.7656,412.9375 95.7656,409.8125 Q95.7656,406.6875 97.0781,405.0313 Q98.4063,403.375 100.9063,403.375 Q101.6094,403.375 102.25,403.5313 Q102.9063,403.6875 103.4688,403.9844 L103.4688,406.7031 Q102.8438,406.125 102.25,405.8594 Q101.6563,405.5781 101.0313,405.5781 Q99.6875,405.5781 99,406.6563 Q98.3125,407.7188 98.3125,409.8125 Q98.3125,411.9063 99,412.9844 Q99.6875,414.0469 101.0313,414.0469 Q101.6563,414.0469 102.25,413.7813 Q102.8438,413.5 103.4688,412.9219 L103.4688,415.6406 Z "/><text fill="#000000" font-family="sans-serif" font-size="12" lengthAdjust="spacingAndGlyphs" textLength="29" x="114.5" y="414.1543">Auth</text><!--class davidcmg\\batea\\Core\\Cron--><rect fill="#FEFECE" height="32" id="davidcmg\\batea\\Core\\Cron" style="stroke: #A80036; stroke-width: 1.5;" width="61" x="85.5" y="327"/><ellipse cx="100.5" cy="343" fill="#ADD1B2" rx="11" ry="11" style="stroke: #A80036; stroke-width: 1.0;"/><path d="M103.4688,348.6406 Q102.8906,348.9375 102.25,349.0781 Q101.6094,349.2344 100.9063,349.2344 Q98.4063,349.2344 97.0781,347.5938 Q95.7656,345.9375 95.7656,342.8125 Q95.7656,339.6875 97.0781,338.0313 Q98.4063,336.375 100.9063,336.375 Q101.6094,336.375 102.25,336.5313 Q102.9063,336.6875 103.4688,336.9844 L103.4688,339.7031 Q102.8438,339.125 102.25,338.8594 Q101.6563,338.5781 101.0313,338.5781 Q99.6875,338.5781 99,339.6563 Q98.3125,340.7188 98.3125,342.8125 Q98.3125,344.9063 99,345.9844 Q99.6875,347.0469 101.0313,347.0469 Q101.6563,347.0469 102.25,346.7813 Q102.8438,346.5 103.4688,345.9219 L103.4688,348.6406 Z "/><text fill="#000000" font-family="sans-serif" font-size="12" lengthAdjust="spacingAndGlyphs" textLength="29" x="114.5" y="347.1543">Cron</text><!--class davidcmg\\batea\\Core\\CRUD--><rect fill="#FEFECE" height="32" id="davidcmg\\batea\\Core\\CRUD" style="stroke: #A80036; stroke-width: 1.5;" width="66" x="83" y="528"/><ellipse cx="98" cy="544" fill="#A9DCDF" rx="11" ry="11" style="stroke: #A80036; stroke-width: 1.0;"/><path d="M98.1094,539.3438 L96.9531,544.4219 L99.2813,544.4219 L98.1094,539.3438 Z M96.625,537.1094 L99.6094,537.1094 L102.9688,549.5 L100.5156,549.5 L99.75,546.4375 L96.4688,546.4375 L95.7188,549.5 L93.2813,549.5 L96.625,537.1094 Z "/><text fill="#000000" font-family="sans-serif" font-size="12" font-style="italic" lengthAdjust="spacingAndGlyphs" textLength="34" x="112" y="548.1543">CRUD</text><!--class davidcmg\\batea\\Core\\Log--><rect fill="#FEFECE" height="32" id="davidcmg\\batea\\Core\\Log" style="stroke: #A80036; stroke-width: 1.5;" width="54" x="89" y="260"/><ellipse cx="104" cy="276" fill="#ADD1B2" rx="11" ry="11" style="stroke: #A80036; stroke-width: 1.0;"/><path d="M106.9688,281.6406 Q106.3906,281.9375 105.75,282.0781 Q105.1094,282.2344 104.4063,282.2344 Q101.9063,282.2344 100.5781,280.5938 Q99.2656,278.9375 99.2656,275.8125 Q99.2656,272.6875 100.5781,271.0313 Q101.9063,269.375 104.4063,269.375 Q105.1094,269.375 105.75,269.5313 Q106.4063,269.6875 106.9688,269.9844 L106.9688,272.7031 Q106.3438,272.125 105.75,271.8594 Q105.1563,271.5781 104.5313,271.5781 Q103.1875,271.5781 102.5,272.6563 Q101.8125,273.7188 101.8125,275.8125 Q101.8125,277.9063 102.5,278.9844 Q103.1875,280.0469 104.5313,280.0469 Q105.1563,280.0469 105.75,279.7813 Q106.3438,279.5 106.9688,278.9219 L106.9688,281.6406 Z "/><text fill="#000000" font-family="sans-serif" font-size="12" lengthAdjust="spacingAndGlyphs" textLength="22" x="118" y="280.1543">Log</text><!--class davidcmg\\batea\\Core\\Router--><rect fill="#FEFECE" height="32" id="davidcmg\\batea\\Core\\Router" style="stroke: #A80036; stroke-width: 1.5;" width="74" x="349.5" y="394"/><ellipse cx="364.5" cy="410" fill="#ADD1B2" rx="11" ry="11" style="stroke: #A80036; stroke-width: 1.0;"/><path d="M367.4688,415.6406 Q366.8906,415.9375 366.25,416.0781 Q365.6094,416.2344 364.9063,416.2344 Q362.4063,416.2344 361.0781,414.5938 Q359.7656,412.9375 359.7656,409.8125 Q359.7656,406.6875 361.0781,405.0313 Q362.4063,403.375 364.9063,403.375 Q365.6094,403.375 366.25,403.5313 Q366.9063,403.6875 367.4688,403.9844 L367.4688,406.7031 Q366.8438,406.125 366.25,405.8594 Q365.6563,405.5781 365.0313,405.5781 Q363.6875,405.5781 363,406.6563 Q362.3125,407.7188 362.3125,409.8125 Q362.3125,411.9063 363,412.9844 Q363.6875,414.0469 365.0313,414.0469 Q365.6563,414.0469 366.25,413.7813 Q366.8438,413.5 367.4688,412.9219 L367.4688,415.6406 Z "/><text fill="#000000" font-family="sans-serif" font-size="12" lengthAdjust="spacingAndGlyphs" textLength="42" x="378.5" y="414.1543">Router</text><!--class davidcmg\\batea\\Core\\Shell--><rect fill="#FEFECE" height="32" id="davidcmg\\batea\\Core\\Shell" style="stroke: #A80036; stroke-width: 1.5;" width="62" x="355.5" y="327"/><ellipse cx="370.5" cy="343" fill="#ADD1B2" rx="11" ry="11" style="stroke: #A80036; stroke-width: 1.0;"/><path d="M373.4688,348.6406 Q372.8906,348.9375 372.25,349.0781 Q371.6094,349.2344 370.9063,349.2344 Q368.4063,349.2344 367.0781,347.5938 Q365.7656,345.9375 365.7656,342.8125 Q365.7656,339.6875 367.0781,338.0313 Q368.4063,336.375 370.9063,336.375 Q371.6094,336.375 372.25,336.5313 Q372.9063,336.6875 373.4688,336.9844 L373.4688,339.7031 Q372.8438,339.125 372.25,338.8594 Q371.6563,338.5781 371.0313,338.5781 Q369.6875,338.5781 369,339.6563 Q368.3125,340.7188 368.3125,342.8125 Q368.3125,344.9063 369,345.9844 Q369.6875,347.0469 371.0313,347.0469 Q371.6563,347.0469 372.25,346.7813 Q372.8438,346.5 373.4688,345.9219 L373.4688,348.6406 Z "/><text fill="#000000" font-family="sans-serif" font-size="12" lengthAdjust="spacingAndGlyphs" textLength="30" x="384.5" y="347.1543">Shell</text><!--class davidcmg\\batea\\Core\\SQLite--><rect fill="#FEFECE" height="32" id="davidcmg\\batea\\Core\\SQLite" style="stroke: #A80036; stroke-width: 1.5;" width="71" x="351" y="260"/><ellipse cx="366" cy="276" fill="#ADD1B2" rx="11" ry="11" style="stroke: #A80036; stroke-width: 1.0;"/><path d="M368.9688,281.6406 Q368.3906,281.9375 367.75,282.0781 Q367.1094,282.2344 366.4063,282.2344 Q363.9063,282.2344 362.5781,280.5938 Q361.2656,278.9375 361.2656,275.8125 Q361.2656,272.6875 362.5781,271.0313 Q363.9063,269.375 366.4063,269.375 Q367.1094,269.375 367.75,269.5313 Q368.4063,269.6875 368.9688,269.9844 L368.9688,272.7031 Q368.3438,272.125 367.75,271.8594 Q367.1563,271.5781 366.5313,271.5781 Q365.1875,271.5781 364.5,272.6563 Q363.8125,273.7188 363.8125,275.8125 Q363.8125,277.9063 364.5,278.9844 Q365.1875,280.0469 366.5313,280.0469 Q367.1563,280.0469 367.75,279.7813 Q368.3438,279.5 368.9688,278.9219 L368.9688,281.6406 Z "/><text fill="#000000" font-family="sans-serif" font-size="12" lengthAdjust="spacingAndGlyphs" textLength="39" x="380" y="280.1543">SQLite</text><!--class davidcmg\\batea\\Core\\Storage--><rect fill="#FEFECE" height="32" id="davidcmg\\batea\\Core\\Storage" style="stroke: #A80036; stroke-width: 1.5;" width="82" x="555" y="394"/><ellipse cx="570" cy="410" fill="#ADD1B2" rx="11" ry="11" style="stroke: #A80036; stroke-width: 1.0;"/><path d="M572.9688,415.6406 Q572.3906,415.9375 571.75,416.0781 Q571.1094,416.2344 570.4063,416.2344 Q567.9063,416.2344 566.5781,414.5938 Q565.2656,412.9375 565.2656,409.8125 Q565.2656,406.6875 566.5781,405.0313 Q567.9063,403.375 570.4063,403.375 Q571.1094,403.375 571.75,403.5313 Q572.4063,403.6875 572.9688,403.9844 L572.9688,406.7031 Q572.3438,406.125 571.75,405.8594 Q571.1563,405.5781 570.5313,405.5781 Q569.1875,405.5781 568.5,406.6563 Q567.8125,407.7188 567.8125,409.8125 Q567.8125,411.9063 568.5,412.9844 Q569.1875,414.0469 570.5313,414.0469 Q571.1563,414.0469 571.75,413.7813 Q572.3438,413.5 572.9688,412.9219 L572.9688,415.6406 Z "/><text fill="#000000" font-family="sans-serif" font-size="12" lengthAdjust="spacingAndGlyphs" textLength="50" x="584" y="414.1543">Storage</text><!--class davidcmg\\batea\\Core\\View--><rect fill="#FEFECE" height="32" id="davidcmg\\batea\\Core\\View" style="stroke: #A80036; stroke-width: 1.5;" width="60" x="566" y="327"/><ellipse cx="581" cy="343" fill="#ADD1B2" rx="11" ry="11" style="stroke: #A80036; stroke-width: 1.0;"/><path d="M583.9688,348.6406 Q583.3906,348.9375 582.75,349.0781 Q582.1094,349.2344 581.4063,349.2344 Q578.9063,349.2344 577.5781,347.5938 Q576.2656,345.9375 576.2656,342.8125 Q576.2656,339.6875 577.5781,338.0313 Q578.9063,336.375 581.4063,336.375 Q582.1094,336.375 582.75,336.5313 Q583.4063,336.6875 583.9688,336.9844 L583.9688,339.7031 Q583.3438,339.125 582.75,338.8594 Q582.1563,338.5781 581.5313,338.5781 Q580.1875,338.5781 579.5,339.6563 Q578.8125,340.7188 578.8125,342.8125 Q578.8125,344.9063 579.5,345.9844 Q580.1875,347.0469 581.5313,347.0469 Q582.1563,347.0469 582.75,346.7813 Q583.3438,346.5 583.9688,345.9219 L583.9688,348.6406 Z "/><text fill="#000000" font-family="sans-serif" font-size="12" lengthAdjust="spacingAndGlyphs" textLength="28" x="595" y="347.1543">View</text><!--class davidcmg\\batea\\Core\\Http\\Request--><rect fill="#FEFECE" height="32" id="davidcmg\\batea\\Core\\Http\\Request" style="stroke: #A80036; stroke-width: 1.5;" width="84" x="74" y="43"/><ellipse cx="89" cy="59" fill="#ADD1B2" rx="11" ry="11" style="stroke: #A80036; stroke-width: 1.0;"/><path d="M91.9688,64.6406 Q91.3906,64.9375 90.75,65.0781 Q90.1094,65.2344 89.4063,65.2344 Q86.9063,65.2344 85.5781,63.5938 Q84.2656,61.9375 84.2656,58.8125 Q84.2656,55.6875 85.5781,54.0313 Q86.9063,52.375 89.4063,52.375 Q90.1094,52.375 90.75,52.5313 Q91.4063,52.6875 91.9688,52.9844 L91.9688,55.7031 Q91.3438,55.125 90.75,54.8594 Q90.1563,54.5781 89.5313,54.5781 Q88.1875,54.5781 87.5,55.6563 Q86.8125,56.7188 86.8125,58.8125 Q86.8125,60.9063 87.5,61.9844 Q88.1875,63.0469 89.5313,63.0469 Q90.1563,63.0469 90.75,62.7813 Q91.3438,62.5 91.9688,61.9219 L91.9688,64.6406 Z "/><text fill="#000000" font-family="sans-serif" font-size="12" lengthAdjust="spacingAndGlyphs" textLength="52" x="103" y="63.1543">Request</text><!--class davidcmg\\batea\\Core\\Http\\Response--><rect fill="#FEFECE" height="32" id="davidcmg\\batea\\Core\\Http\\Response" style="stroke: #A80036; stroke-width: 1.5;" width="94" x="69" y="110"/><ellipse cx="84" cy="126" fill="#ADD1B2" rx="11" ry="11" style="stroke: #A80036; stroke-width: 1.0;"/><path d="M86.9688,131.6406 Q86.3906,131.9375 85.75,132.0781 Q85.1094,132.2344 84.4063,132.2344 Q81.9063,132.2344 80.5781,130.5938 Q79.2656,128.9375 79.2656,125.8125 Q79.2656,122.6875 80.5781,121.0313 Q81.9063,119.375 84.4063,119.375 Q85.1094,119.375 85.75,119.5313 Q86.4063,119.6875 86.9688,119.9844 L86.9688,122.7031 Q86.3438,122.125 85.75,121.8594 Q85.1563,121.5781 84.5313,121.5781 Q83.1875,121.5781 82.5,122.6563 Q81.8125,123.7188 81.8125,125.8125 Q81.8125,127.9063 82.5,128.9844 Q83.1875,130.0469 84.5313,130.0469 Q85.1563,130.0469 85.75,129.7813 Q86.3438,129.5 86.9688,128.9219 L86.9688,131.6406 Z "/><text fill="#000000" font-family="sans-serif" font-size="12" lengthAdjust="spacingAndGlyphs" textLength="62" x="98" y="130.1543">Response</text><!--class davidcmg\\batea\\Models\\Server--><rect fill="#FEFECE" height="32" id="davidcmg\\batea\\Models\\Server" style="stroke: #A80036; stroke-width: 1.5;" width="72" x="350.5" y="1013"/><ellipse cx="365.5" cy="1029" fill="#ADD1B2" rx="11" ry="11" style="stroke: #A80036; stroke-width: 1.0;"/><path d="M368.4688,1034.6406 Q367.8906,1034.9375 367.25,1035.0781 Q366.6094,1035.2344 365.9063,1035.2344 Q363.4063,1035.2344 362.0781,1033.5938 Q360.7656,1031.9375 360.7656,1028.8125 Q360.7656,1025.6875 362.0781,1024.0313 Q363.4063,1022.375 365.9063,1022.375 Q366.6094,1022.375 367.25,1022.5313 Q367.9063,1022.6875 368.4688,1022.9844 L368.4688,1025.7031 Q367.8438,1025.125 367.25,1024.8594 Q366.6563,1024.5781 366.0313,1024.5781 Q364.6875,1024.5781 364,1025.6563 Q363.3125,1026.7188 363.3125,1028.8125 Q363.3125,1030.9063 364,1031.9844 Q364.6875,1033.0469 366.0313,1033.0469 Q366.6563,1033.0469 367.25,1032.7813 Q367.8438,1032.5 368.4688,1031.9219 L368.4688,1034.6406 Z "/><text fill="#000000" font-family="sans-serif" font-size="12" lengthAdjust="spacingAndGlyphs" textLength="40" x="379.5" y="1033.1543">Server</text><!--class davidcmg\\batea\\Models\\ServerStatus--><rect fill="#FEFECE" height="32" id="davidcmg\\batea\\Models\\ServerStatus" style="stroke: #A80036; stroke-width: 1.5;" width="113" x="330" y="1080"/><ellipse cx="345" cy="1096" fill="#ADD1B2" rx="11" ry="11" style="stroke: #A80036; stroke-width: 1.0;"/><path d="M347.9688,1101.6406 Q347.3906,1101.9375 346.75,1102.0781 Q346.1094,1102.2344 345.4063,1102.2344 Q342.9063,1102.2344 341.5781,1100.5938 Q340.2656,1098.9375 340.2656,1095.8125 Q340.2656,1092.6875 341.5781,1091.0313 Q342.9063,1089.375 345.4063,1089.375 Q346.1094,1089.375 346.75,1089.5313 Q347.4063,1089.6875 347.9688,1089.9844 L347.9688,1092.7031 Q347.3438,1092.125 346.75,1091.8594 Q346.1563,1091.5781 345.5313,1091.5781 Q344.1875,1091.5781 343.5,1092.6563 Q342.8125,1093.7188 342.8125,1095.8125 Q342.8125,1097.9063 343.5,1098.9844 Q344.1875,1100.0469 345.5313,1100.0469 Q346.1563,1100.0469 346.75,1099.7813 Q347.3438,1099.5 347.9688,1098.9219 L347.9688,1101.6406 Z "/><text fill="#000000" font-family="sans-serif" font-size="12" lengthAdjust="spacingAndGlyphs" textLength="81" x="359" y="1100.1543">ServerStatus</text><!--class davidcmg\\batea\\Models\\Task--><rect fill="#FEFECE" height="32" id="davidcmg\\batea\\Models\\Task" style="stroke: #A80036; stroke-width: 1.5;" width="61" x="356" y="1147"/><ellipse cx="371" cy="1163" fill="#ADD1B2" rx="11" ry="11" style="stroke: #A80036; stroke-width: 1.0;"/><path d="M373.9688,1168.6406 Q373.3906,1168.9375 372.75,1169.0781 Q372.1094,1169.2344 371.4063,1169.2344 Q368.9063,1169.2344 367.5781,1167.5938 Q366.2656,1165.9375 366.2656,1162.8125 Q366.2656,1159.6875 367.5781,1158.0313 Q368.9063,1156.375 371.4063,1156.375 Q372.1094,1156.375 372.75,1156.5313 Q373.4063,1156.6875 373.9688,1156.9844 L373.9688,1159.7031 Q373.3438,1159.125 372.75,1158.8594 Q372.1563,1158.5781 371.5313,1158.5781 Q370.1875,1158.5781 369.5,1159.6563 Q368.8125,1160.7188 368.8125,1162.8125 Q368.8125,1164.9063 369.5,1165.9844 Q370.1875,1167.0469 371.5313,1167.0469 Q372.1563,1167.0469 372.75,1166.7813 Q373.3438,1166.5 373.9688,1165.9219 L373.9688,1168.6406 Z "/><text fill="#000000" font-family="sans-serif" font-size="12" lengthAdjust="spacingAndGlyphs" textLength="29" x="385" y="1167.1543">Task</text><!--class davidcmg\\batea\\Models\\TaskStatus--><rect fill="#FEFECE" height="32" id="davidcmg\\batea\\Models\\TaskStatus" style="stroke: #A80036; stroke-width: 1.5;" width="102" x="335.5" y="1214"/><ellipse cx="350.5" cy="1230" fill="#ADD1B2" rx="11" ry="11" style="stroke: #A80036; stroke-width: 1.0;"/><path d="M353.4688,1235.6406 Q352.8906,1235.9375 352.25,1236.0781 Q351.6094,1236.2344 350.9063,1236.2344 Q348.4063,1236.2344 347.0781,1234.5938 Q345.7656,1232.9375 345.7656,1229.8125 Q345.7656,1226.6875 347.0781,1225.0313 Q348.4063,1223.375 350.9063,1223.375 Q351.6094,1223.375 352.25,1223.5313 Q352.9063,1223.6875 353.4688,1223.9844 L353.4688,1226.7031 Q352.8438,1226.125 352.25,1225.8594 Q351.6563,1225.5781 351.0313,1225.5781 Q349.6875,1225.5781 349,1226.6563 Q348.3125,1227.7188 348.3125,1229.8125 Q348.3125,1231.9063 349,1232.9844 Q349.6875,1234.0469 351.0313,1234.0469 Q351.6563,1234.0469 352.25,1233.7813 Q352.8438,1233.5 353.4688,1232.9219 L353.4688,1235.6406 Z "/><text fill="#000000" font-family="sans-serif" font-size="12" lengthAdjust="spacingAndGlyphs" textLength="70" x="364.5" y="1234.1543">TaskStatus</text><!--class davidcmg\\batea\\Models\\User--><rect fill="#FEFECE" height="32" id="davidcmg\\batea\\Models\\User" style="stroke: #A80036; stroke-width: 1.5;" width="61" x="356" y="1281"/><ellipse cx="371" cy="1297" fill="#ADD1B2" rx="11" ry="11" style="stroke: #A80036; stroke-width: 1.0;"/><path d="M373.9688,1302.6406 Q373.3906,1302.9375 372.75,1303.0781 Q372.1094,1303.2344 371.4063,1303.2344 Q368.9063,1303.2344 367.5781,1301.5938 Q366.2656,1299.9375 366.2656,1296.8125 Q366.2656,1293.6875 367.5781,1292.0313 Q368.9063,1290.375 371.4063,1290.375 Q372.1094,1290.375 372.75,1290.5313 Q373.4063,1290.6875 373.9688,1290.9844 L373.9688,1293.7031 Q373.3438,1293.125 372.75,1292.8594 Q372.1563,1292.5781 371.5313,1292.5781 Q370.1875,1292.5781 369.5,1293.6563 Q368.8125,1294.7188 368.8125,1296.8125 Q368.8125,1298.9063 369.5,1299.9844 Q370.1875,1301.0469 371.5313,1301.0469 Q372.1563,1301.0469 372.75,1300.7813 Q373.3438,1300.5 373.9688,1299.9219 L373.9688,1302.6406 Z "/><text fill="#000000" font-family="sans-serif" font-size="12" lengthAdjust="spacingAndGlyphs" textLength="29" x="385" y="1301.1543">User</text><!--link davidcmg\\batea\\Core\\Page to davidcmg\\batea\\Controllers\\Admin--><path d="M167.6175,467.4 C167.6175,467.4 387,467.4 387,467.4 C387,467.4 387,563.6675 387,602.7761 " fill="none" id="davidcmg\\batea\\Core\\Page-davidcmg\\batea\\Controllers\\Admin" style="stroke: #A80036; stroke-width: 1.0;"/><polygon fill="none" points="167.6176,474.3999,147.6175,467.4,167.6175,460.3999,167.6176,474.3999" style="stroke: #A80036; stroke-width: 1.0;"/><!--link davidcmg\\batea\\Core\\Page to davidcmg\\batea\\Controllers\\Servers--><path d="M159.6742,473.8 C159.6742,473.8 161,473.8 161,473.8 C161,473.8 161,820 161,820 C161,820 282.2904,820 346.9629,820 " fill="none" id="davidcmg\\batea\\Core\\Page-davidcmg\\batea\\Controllers\\Servers" style="stroke: #A80036; stroke-width: 1.0;"/><polygon fill="none" points="167.742,480.7998,147.7419,473.8,167.7418,466.7998,167.742,480.7998" style="stroke: #A80036; stroke-width: 1.0;"/><!--link davidcmg\\batea\\Core\\Page to davidcmg\\batea\\Controllers\\Tasks--><path d="M156.9833,480.2 C156.9833,480.2 158,480.2 158,480.2 C158,480.2 158,887 158,887 C158,887 288.5474,887 352.2912,887 " fill="none" id="davidcmg\\batea\\Core\\Page-davidcmg\\batea\\Controllers\\Tasks" style="stroke: #A80036; stroke-width: 1.0;"/><polygon fill="none" points="167.833,487.1998,147.833,480.2,167.8329,473.1998,167.833,487.1998" style="stroke: #A80036; stroke-width: 1.0;"/><!--link davidcmg\\batea\\Core\\Page to davidcmg\\batea\\Controllers\\Users--><path d="M154.2847,486.6 C154.2847,486.6 155,486.6 155,486.6 C155,486.6 155,954 155,954 C155,954 287.9458,954 352.3414,954 " fill="none" id="davidcmg\\batea\\Core\\Page-davidcmg\\batea\\Controllers\\Users" style="stroke: #A80036; stroke-width: 1.0;"/><polygon fill="none" points="167.8469,493.5997,147.8468,486.6,167.8467,479.5997,167.8469,493.5997" style="stroke: #A80036; stroke-width: 1.0;"/><!--link davidcmg\\batea\\Core\\CRUD to davidcmg\\batea\\Models\\Server--><path d="M136,580.1368 C136,580.1368 136,1029 136,1029 C136,1029 280.9715,1029 350.3427,1029 " fill="none" id="davidcmg\\batea\\Core\\CRUD-davidcmg\\batea\\Models\\Server" style="stroke: #A80036; stroke-width: 1.0;"/><polygon fill="none" points="129.0001,580.1369,136,560.1368,143.0001,580.1368,129.0001,580.1369" style="stroke: #A80036; stroke-width: 1.0;"/><!--link davidcmg\\batea\\Core\\CRUD to davidcmg\\batea\\Models\\ServerStatus--><path d="M169.3854,544 C169.3854,544 339,544 339,544 C339,544 339,988.6007 339,1079.7786 " fill="none" id="davidcmg\\batea\\Core\\CRUD-davidcmg\\batea\\Models\\ServerStatus" style="stroke: #A80036; stroke-width: 1.0;"/><polygon fill="none" points="169.3854,550.9999,149.3854,544,169.3853,536.9999,169.3854,550.9999" style="stroke: #A80036; stroke-width: 1.0;"/><!--link davidcmg\\batea\\Core\\CRUD to davidcmg\\batea\\Models\\Task--><path d="M123,580.2386 C123,580.2386 123,1163 123,1163 C123,1163 286.2491,1163 355.7575,1163 " fill="none" id="davidcmg\\batea\\Core\\CRUD-davidcmg\\batea\\Models\\Task" style="stroke: #A80036; stroke-width: 1.0;"/><polygon fill="none" points="116.0001,580.2386,123,560.2386,130.0001,580.2385,116.0001,580.2386" style="stroke: #A80036; stroke-width: 1.0;"/><!--link davidcmg\\batea\\Core\\CRUD to davidcmg\\batea\\Models\\TaskStatus--><path d="M110,580.2808 C110,580.2808 110,1230 110,1230 C110,1230 255.5703,1230 335.4634,1230 " fill="none" id="davidcmg\\batea\\Core\\CRUD-davidcmg\\batea\\Models\\TaskStatus" style="stroke: #A80036; stroke-width: 1.0;"/><polygon fill="none" points="103.0001,580.2808,110,560.2808,117.0001,580.2807,103.0001,580.2808" style="stroke: #A80036; stroke-width: 1.0;"/><!--link davidcmg\\batea\\Core\\CRUD to davidcmg\\batea\\Models\\User--><path d="M97,580.0758 C97,580.0758 97,1297 97,1297 C97,1297 281.2862,1297 355.7925,1297 " fill="none" id="davidcmg\\batea\\Core\\CRUD-davidcmg\\batea\\Models\\User" style="stroke: #A80036; stroke-width: 1.0;"/><polygon fill="none" points="90.0001,580.0759,97,560.0758,104.0001,580.0758,90.0001,580.0759" style="stroke: #A80036; stroke-width: 1.0;"/><!--link davidcmg\\batea\\Core\\Auth to davidcmg\\batea\\Core\\Cron--><!--link davidcmg\\batea\\Core\\Cron to davidcmg\\batea\\Core\\Log--><!--link davidcmg\\batea\\Core\\Auth to davidcmg\\batea\\Core\\Router--><!--link davidcmg\\batea\\Core\\Router to davidcmg\\batea\\Core\\Shell--><!--link davidcmg\\batea\\Core\\Shell to davidcmg\\batea\\Core\\SQLite--><!--link davidcmg\\batea\\Core\\Router to davidcmg\\batea\\Core\\Storage--><!--link davidcmg\\batea\\Core\\Storage to davidcmg\\batea\\Core\\View--><!--
@startuml

skinparam shadowing false
skinparam linetype ortho
hide empty members
left to right direction
set namespaceSeparator \\


class \\davidcmg\\batea\\Config {
}

class \\davidcmg\\batea\\Controllers\\Admin extends \\davidcmg\\batea\\Core\\Page {
}

class \\davidcmg\\batea\\Controllers\\Index {
}

class \\davidcmg\\batea\\Controllers\\Login {
}

class \\davidcmg\\batea\\Controllers\\Servers extends \\davidcmg\\batea\\Core\\Page {
}

class \\davidcmg\\batea\\Controllers\\Tasks extends \\davidcmg\\batea\\Core\\Page {
}

class \\davidcmg\\batea\\Controllers\\Users extends \\davidcmg\\batea\\Core\\Page {
}

class \\davidcmg\\batea\\Core\\Auth {
}

class \\davidcmg\\batea\\Core\\Cron {
}

abstract class \\davidcmg\\batea\\Core\\CRUD {
}

class \\davidcmg\\batea\\Core\\Log {
}

abstract class \\davidcmg\\batea\\Core\\Page {
}

class \\davidcmg\\batea\\Core\\Router {
}

class \\davidcmg\\batea\\Core\\Shell {
}

class \\davidcmg\\batea\\Core\\SQLite {
}

class \\davidcmg\\batea\\Core\\Storage {
}

class \\davidcmg\\batea\\Core\\View {
}

class \\davidcmg\\batea\\Core\\Http\\Request {
}

class \\davidcmg\\batea\\Core\\Http\\Response {
}

class \\davidcmg\\batea\\Models\\Server extends \\davidcmg\\batea\\Core\\CRUD {
}

class \\davidcmg\\batea\\Models\\ServerStatus extends \\davidcmg\\batea\\Core\\CRUD {
}

class \\davidcmg\\batea\\Models\\Task extends \\davidcmg\\batea\\Core\\CRUD {
}

class \\davidcmg\\batea\\Models\\TaskStatus extends \\davidcmg\\batea\\Core\\CRUD {
}

class \\davidcmg\\batea\\Models\\User extends \\davidcmg\\batea\\Core\\CRUD {
}


@enduml

PlantUML version 1.2017.15(Mon Jul 03 18:45:34 CEST 2017)
(GPL source distribution)
Java Runtime: OpenJDK Runtime Environment
JVM: OpenJDK 64-Bit Server VM
Java Version: 11.0.6+10-post-Ubuntu-1ubuntu118.04.1
Operating System: Linux
OS Version: 4.15.0-96-generic
Default Encoding: UTF-8
Language: en
Country: US
--></g></svg>